<svg width="120" height="120" viewBox="0 0 120 120" fill="none" xmlns="http://www.w3.org/2000/svg">
<path d="M41.25 64.6875L55.3125 78.75L78.75 45.9375M116.25 60C116.25 67.925 112.313 74.9375 106.294 79.175C106.942 82.8798 106.688 86.6863 105.554 90.2722C104.419 93.8581 102.437 97.1177 99.775 99.775C97.1177 102.437 93.8581 104.419 90.2722 105.554C86.6863 106.688 82.8798 106.942 79.175 106.294C77.0139 109.372 74.1428 111.884 70.805 113.617C67.4672 115.35 63.7609 116.253 60 116.25C52.075 116.25 45.0625 112.312 40.825 106.294C37.1202 106.942 33.3138 106.688 29.728 105.553C26.1423 104.418 22.8826 102.436 20.225 99.775C17.5633 97.1177 15.5811 93.8581 14.4464 90.2722C13.3117 86.6863 13.0578 82.8798 13.7063 79.175C10.6283 77.0139 8.11639 74.1428 6.38329 70.805C4.6502 67.4672 3.74695 63.7609 3.75001 60C3.75001 52.075 7.68751 45.0625 13.7063 40.825C13.0578 37.1202 13.3117 33.3137 14.4464 29.7278C15.5811 26.1419 17.5633 22.8823 20.225 20.225C22.8826 17.5637 26.1423 15.5819 29.728 14.4472C33.3138 13.3125 37.1202 13.0583 40.825 13.7063C42.9865 10.6286 45.8576 8.11705 49.1954 6.384C52.5331 4.65095 56.2392 3.74747 60 3.75001C67.925 3.75001 74.9375 7.6875 79.175 13.7063C82.8798 13.0583 86.6862 13.3125 90.272 14.4472C93.8577 15.5819 97.1174 17.5637 99.775 20.225C102.436 22.8826 104.418 26.1423 105.553 29.728C106.688 33.3138 106.942 37.1202 106.294 40.825C109.372 42.9862 111.884 45.8572 113.617 49.195C115.35 52.5328 116.253 56.2391 116.25 60Z" stroke="#F7C345" stroke-width="6" stroke-linecap="round" stroke-linejoin="round"/>
</svg>
