<svg width="44" height="50" viewBox="0 0 44 50" fill="none" xmlns="http://www.w3.org/2000/svg">
<path fill-rule="evenodd" clip-rule="evenodd" d="M22 0C18.287 0 14.726 1.31696 12.1005 3.66117C9.475 6.00537 8 9.18479 8 12.5V19.6429C5.87827 19.6429 3.84344 20.3954 2.34315 21.735C0.842855 23.0745 0 24.8913 0 26.7857V42.8571C0 44.7515 0.842855 46.5684 2.34315 47.9079C3.84344 49.2475 5.87827 50 8 50H36C38.1217 50 40.1566 49.2475 41.6569 47.9079C43.1571 46.5684 44 44.7515 44 42.8571V26.7857C44 24.8913 43.1571 23.0745 41.6569 21.735C40.1566 20.3954 38.1217 19.6429 36 19.6429V12.5C36 5.59524 29.7333 0 22 0ZM32 19.6429V12.5C32 10.132 30.9464 7.86098 29.0711 6.18655C27.1957 4.51211 24.6522 3.57143 22 3.57143C19.3478 3.57143 16.8043 4.51211 14.9289 6.18655C13.0536 7.86098 12 10.132 12 12.5V19.6429H32Z" fill="#09595A"/>
</svg>
